<svg width="16" height="16" viewBox="0 0 16 16" fill="none" xmlns="http://www.w3.org/2000/svg">
<g clip-path="url(#clip0_23_17)">
<g filter="url(#filter0_d_23_17)">
<rect x="1" y="3" width="14" height="10" rx="2" fill="url(#paint0_linear_23_17)"/>
</g>
<g clip-path="url(#clip1_23_17)">
<rect x="1" y="3" width="14" height="10" rx="2" fill="#250074"/>
<line x1="4" y1="3" x2="4" y2="13" stroke="#0063D7"/>
<line x1="8" y1="3" x2="8" y2="13" stroke="#0063D7"/>
<line x1="12" y1="3" x2="12" y2="13" stroke="#0063D7"/>
<line x1="15" y1="5.5" x2="1" y2="5.5" stroke="#0063D7"/>
<line x1="15" y1="10.5" x2="1" y2="10.5" stroke="#0063D7"/>
<line x1="15" y1="8" x2="1" y2="8" stroke="#0063D7"/>
</g>
<rect x="1.5" y="3.5" width="13" height="9" rx="1.5" stroke="#0063D7"/>
<g filter="url(#filter1_d_23_17)">
<path d="M12.0547 9.3567H9.40262L10.7984 12.8096C10.8956 13.049 10.7845 13.3174 10.5623 13.419L9.33317 13.963C9.10405 14.0646 8.8471 13.9485 8.74987 13.7164L7.42355 10.4376L5.25695 12.7008C4.96822 13.0024 4.5 12.7699 4.5 12.3744V1.46462C4.5 1.04821 4.99802 0.845212 5.25692 1.13819L12.3672 8.56601C12.654 8.84986 12.4424 9.3567 12.0547 9.3567Z" fill="white"/>
</g>
</g>
<defs>
<filter id="filter0_d_23_17" x="0" y="2.2" width="16" height="12" filterUnits="userSpaceOnUse" color-interpolation-filters="sRGB">
<feFlood flood-opacity="0" result="BackgroundImageFix"/>
<feColorMatrix in="SourceAlpha" type="matrix" values="0 0 0 0 0 0 0 0 0 0 0 0 0 0 0 0 0 0 127 0" result="hardAlpha"/>
<feOffset dy="0.2"/>
<feGaussianBlur stdDeviation="0.5"/>
<feColorMatrix type="matrix" values="0 0 0 0 0 0 0 0 0 0 0 0 0 0 0 0 0 0 0.25 0"/>
<feBlend mode="normal" in2="BackgroundImageFix" result="effect1_dropShadow_23_17"/>
<feBlend mode="normal" in="SourceGraphic" in2="effect1_dropShadow_23_17" result="shape"/>
</filter>
<filter id="filter1_d_23_17" x="0.5" y="1" width="16" height="21" filterUnits="userSpaceOnUse" color-interpolation-filters="sRGB">
<feFlood flood-opacity="0" result="BackgroundImageFix"/>
<feColorMatrix in="SourceAlpha" type="matrix" values="0 0 0 0 0 0 0 0 0 0 0 0 0 0 0 0 0 0 127 0" result="hardAlpha"/>
<feOffset dy="4"/>
<feGaussianBlur stdDeviation="2"/>
<feComposite in2="hardAlpha" operator="out"/>
<feColorMatrix type="matrix" values="0 0 0 0 0 0 0 0 0 0 0 0 0 0 0 0 0 0 0.25 0"/>
<feBlend mode="normal" in2="BackgroundImageFix" result="effect1_dropShadow_23_17"/>
<feBlend mode="normal" in="SourceGraphic" in2="effect1_dropShadow_23_17" result="shape"/>
</filter>
<linearGradient id="paint0_linear_23_17" x1="8" y1="3" x2="8" y2="13" gradientUnits="userSpaceOnUse">
<stop stop-color="#29CB00"/>
<stop offset="1" stop-color="#00A8B3"/>
</linearGradient>
<clipPath id="clip0_23_17">
<rect width="16" height="16" fill="white"/>
</clipPath>
<clipPath id="clip1_23_17">
<rect x="1" y="3" width="14" height="10" rx="2" fill="white"/>
</clipPath>
</defs>
</svg>
