<svg width="16" height="16" viewBox="0 0 16 16" fill="none" xmlns="http://www.w3.org/2000/svg">
<g filter="url(#filter0_d_6_21)">
<rect x="1" y="3" width="14" height="10" rx="2" fill="url(#paint0_linear_6_21)"/>
</g>
<g filter="url(#filter1_d_6_21)">
<rect x="4.46447" y="1.87627" width="10" height="10" rx="1" transform="rotate(15 4.46447 1.87627)" fill="white"/>
<path d="M9.03426 4.13602C8.46443 4.88715 8.10897 5.38354 7.50696 6.09879C7.67529 6.41064 7.88587 6.77778 8.26619 7.23039C7.81834 6.8887 7.53093 6.58855 7.33233 6.30421C6.56793 7.19545 5.40984 8.44636 3.10102 10.8284C4.51539 10.4497 5.5817 10.2684 6.51118 10.3387C6.51734 10.156 6.54505 9.97474 6.59374 9.79859L6.60521 9.75987C6.8352 8.9802 7.4049 8.48597 7.87741 8.65691C8.35011 8.82718 8.54634 9.59787 8.3172 10.377C8.27627 10.518 8.22187 10.6547 8.15476 10.7852C8.98383 11.1909 9.80742 11.8775 10.8285 12.8986C10.7079 12.3964 10.6009 11.944 10.4987 11.5129C10.2452 11.1797 9.99834 10.7675 9.41137 10.2356C9.84676 10.4827 10.144 10.7124 10.3631 10.9391C9.32754 6.54264 9.29718 5.9872 9.03426 4.13602Z" fill="black"/>
</g>
<defs>
<filter id="filter0_d_6_21" x="0" y="2.2" width="16" height="12" filterUnits="userSpaceOnUse" color-interpolation-filters="sRGB">
<feFlood flood-opacity="0" result="BackgroundImageFix"/>
<feColorMatrix in="SourceAlpha" type="matrix" values="0 0 0 0 0 0 0 0 0 0 0 0 0 0 0 0 0 0 127 0" result="hardAlpha"/>
<feOffset dy="0.2"/>
<feGaussianBlur stdDeviation="0.5"/>
<feColorMatrix type="matrix" values="0 0 0 0 0 0 0 0 0 0 0 0 0 0 0 0 0 0 0.25 0"/>
<feBlend mode="normal" in2="BackgroundImageFix" result="effect1_dropShadow_6_21"/>
<feBlend mode="normal" in="SourceGraphic" in2="effect1_dropShadow_6_21" result="shape"/>
</filter>
<filter id="filter1_d_6_21" x="1.10077" y="1.30077" width="13.7985" height="13.7985" filterUnits="userSpaceOnUse" color-interpolation-filters="sRGB">
<feFlood flood-opacity="0" result="BackgroundImageFix"/>
<feColorMatrix in="SourceAlpha" type="matrix" values="0 0 0 0 0 0 0 0 0 0 0 0 0 0 0 0 0 0 127 0" result="hardAlpha"/>
<feOffset dy="0.2"/>
<feGaussianBlur stdDeviation="0.5"/>
<feColorMatrix type="matrix" values="0 0 0 0 0 0 0 0 0 0 0 0 0 0 0 0 0 0 0.25 0"/>
<feBlend mode="normal" in2="BackgroundImageFix" result="effect1_dropShadow_6_21"/>
<feBlend mode="normal" in="SourceGraphic" in2="effect1_dropShadow_6_21" result="shape"/>
</filter>
<linearGradient id="paint0_linear_6_21" x1="8" y1="3" x2="8" y2="13" gradientUnits="userSpaceOnUse">
<stop stop-color="#5F8F99"/>
<stop offset="1" stop-color="#425770"/>
</linearGradient>
</defs>
</svg>
