<svg width="16" height="16" viewBox="0 0 16 16" fill="none" xmlns="http://www.w3.org/2000/svg">
<g filter="url(#filter0_d_19_18)">
<rect x="1" y="3" width="14" height="10" rx="2" fill="url(#paint0_linear_19_18)"/>
</g>
<g filter="url(#filter1_d_19_18)">
<rect x="4.53518" y="1.99875" width="9.8" height="9.8" rx="0.9" transform="rotate(15 4.53518 1.99875)" fill="#212121" stroke="#424242" stroke-width="0.2"/>
<mask id="mask0_19_18" style="mask-type:luminance" maskUnits="userSpaceOnUse" x="2" y="2" width="12" height="12">
<rect x="4.53518" y="1.99875" width="9.8" height="9.8" rx="0.9" transform="rotate(15 4.53518 1.99875)" fill="white" stroke="black" stroke-width="0.2"/>
</mask>
<g mask="url(#mask0_19_18)">
<path d="M5.25901 4.53656C5.24624 4.58422 5.24546 4.62059 5.25669 4.64568C5.26954 4.66983 5.29335 4.68656 5.32813 4.69588C5.35904 4.70416 5.39318 4.70296 5.43055 4.69227C5.46827 4.68029 5.50209 4.65967 5.53202 4.63042L5.7251 3.90984L6.03033 3.99163L5.75546 5.01744L5.48887 4.94601L5.50744 4.82261C5.46084 4.86258 5.40558 4.88849 5.34167 4.90035C5.2781 4.91093 5.21476 4.90776 5.15165 4.89085C5.05506 4.86497 4.98907 4.81761 4.95368 4.74877C4.91992 4.67899 4.9165 4.59387 4.94342 4.49341L5.14168 3.75351L5.44691 3.8353L5.25901 4.53656ZM6.48634 5.01451C6.53915 5.02866 6.58243 5.03197 6.61619 5.02445C6.65159 5.01599 6.6736 4.99566 6.68223 4.96347C6.68844 4.94028 6.687 4.91988 6.67792 4.90227C6.67013 4.88499 6.65121 4.86543 6.62118 4.84358C6.59149 4.82044 6.54381 4.78972 6.47816 4.75142C6.38237 4.69677 6.31382 4.63837 6.27249 4.57622C6.23151 4.51279 6.22241 4.43857 6.24519 4.35357C6.27038 4.25955 6.32955 4.19328 6.4227 4.15474C6.51714 4.11655 6.63454 4.11626 6.77493 4.15387C6.9372 4.19735 7.06444 4.27631 7.15663 4.39073L6.98678 4.53779C6.90829 4.45464 6.8214 4.4003 6.72609 4.37476C6.67586 4.3613 6.63679 4.35773 6.60887 4.36406C6.58224 4.37072 6.5653 4.38758 6.55805 4.41463C6.55322 4.43266 6.55487 4.44966 6.56301 4.46565C6.57278 4.48069 6.59269 4.49914 6.62272 4.52099C6.65405 4.54318 6.70125 4.57309 6.76433 4.6107C6.83222 4.65097 6.88607 4.68956 6.92588 4.72645C6.96697 4.76369 6.99488 4.80637 7.00959 4.85448C7.02431 4.9026 7.02304 4.95885 7.00578 5.02325C6.98646 5.09537 6.948 5.15132 6.89041 5.1911C6.83281 5.23089 6.76386 5.25382 6.68355 5.25991C6.60324 5.266 6.51865 5.25714 6.42978 5.23332C6.33448 5.20779 6.25181 5.17114 6.18179 5.12339C6.11176 5.07564 6.05626 5.02005 6.01528 4.95661L6.21396 4.82557C6.28737 4.92254 6.37816 4.98552 6.48634 5.01451ZM7.56155 5.04793C7.53911 5.20894 7.60066 5.30895 7.74619 5.34794C7.83377 5.37141 7.92894 5.36654 8.0317 5.33334L8.10889 5.53209C8.04693 5.56242 7.97772 5.58115 7.90127 5.58827C7.82517 5.5941 7.74526 5.58581 7.66155 5.56338C7.54693 5.53266 7.45573 5.48407 7.38796 5.4176C7.32053 5.34984 7.27708 5.26987 7.25761 5.17769C7.23977 5.08456 7.24534 4.98391 7.27433 4.87572C7.30194 4.77269 7.3461 4.68514 7.40683 4.61307C7.46918 4.54005 7.5441 4.48973 7.63156 4.46209C7.72066 4.43351 7.81737 4.43319 7.92169 4.46115C8.01957 4.48737 8.09888 4.5314 8.15961 4.59323C8.22069 4.65376 8.25985 4.72913 8.27709 4.81934C8.29597 4.9086 8.29074 5.00796 8.26141 5.11743C8.25002 5.15994 8.23825 5.19612 8.22611 5.226L7.56155 5.04793ZM7.86682 4.66592C7.81144 4.65108 7.76149 4.65979 7.71696 4.69203C7.67278 4.72298 7.63625 4.77945 7.60738 4.86144L7.98409 4.96238C8.02569 4.79683 7.9866 4.69802 7.86682 4.66592ZM10.0644 4.64187L10.2672 4.69622L10.1017 5.19022L9.95876 5.15192L10.0644 4.64187ZM10.387 4.72832L10.5898 4.78267L10.4263 5.27718L10.2833 5.23888L10.387 4.72832ZM11.0943 6.32789C11.1716 6.34859 11.2367 6.35017 11.2897 6.33263C11.3427 6.31509 11.3758 6.28184 11.3889 6.2329C11.3979 6.19942 11.3993 6.17082 11.3933 6.14711C11.3876 6.12211 11.3695 6.09658 11.3393 6.07052C11.3093 6.04317 11.2613 6.01099 11.1953 5.97398C11.0848 5.91261 11.0067 5.85373 10.9611 5.79733C10.9158 5.73964 10.9042 5.66959 10.9263 5.58716C10.9491 5.50216 11.0026 5.44404 11.0869 5.41279C11.1712 5.38154 11.2713 5.38145 11.3872 5.4125C11.5289 5.45046 11.6425 5.52094 11.7281 5.62394L11.6247 5.71632C11.5901 5.67531 11.5517 5.64086 11.5095 5.61298C11.4676 5.58382 11.4164 5.56112 11.3559 5.54491C11.209 5.50556 11.1237 5.53033 11.0999 5.61919C11.0916 5.6501 11.0926 5.67729 11.1029 5.70075C11.1145 5.72455 11.1362 5.74901 11.1681 5.77413C11.2017 5.7983 11.2524 5.83053 11.3203 5.87081C11.4231 5.93011 11.4954 5.99018 11.537 6.05104C11.5803 6.11096 11.5903 6.18471 11.5668 6.27228C11.5395 6.37403 11.478 6.43897 11.3821 6.46711C11.2862 6.49525 11.1784 6.49328 11.0586 6.46119C10.8989 6.41839 10.7785 6.33713 10.6974 6.21739L10.8166 6.13547C10.8489 6.18 10.8886 6.21964 10.9359 6.25439C10.9836 6.28786 11.0363 6.31236 11.0943 6.32789ZM12.6983 6.82187C12.6573 6.83574 12.61 6.84238 12.5563 6.8418C12.5039 6.84156 12.4533 6.83489 12.4043 6.82178C12.2974 6.79313 12.2211 6.74301 12.1755 6.67141C12.1301 6.59853 12.1197 6.51636 12.1442 6.42492L12.3067 5.81832L12.073 5.75569L12.1071 5.62818L12.3409 5.69082L12.4025 5.46093L12.5699 5.48509L12.5032 5.7343L12.8567 5.82903L12.8013 5.95084L12.469 5.8618L12.307 6.46647C12.2914 6.52443 12.2953 6.57171 12.3187 6.60833C12.342 6.64495 12.3878 6.6724 12.456 6.69069C12.5256 6.70932 12.5949 6.71065 12.6641 6.69467L12.6983 6.82187ZM14.1885 5.74694L13.806 7.17458L13.663 7.13627L13.6833 6.99883C13.6322 7.04034 13.5787 7.06742 13.5228 7.08006C13.467 7.09271 13.4107 7.09144 13.354 7.07625C13.2253 7.04174 13.1406 6.96868 13.1001 6.85706C13.0609 6.74579 13.0634 6.60773 13.1076 6.44288C13.1348 6.34114 13.1753 6.25465 13.2289 6.18343C13.2828 6.11092 13.3454 6.06006 13.4168 6.03086C13.4897 6.00072 13.5668 5.99651 13.6479 6.01825C13.7599 6.04828 13.8405 6.11335 13.8896 6.21347L14.0314 5.68414L14.1885 5.74694ZM13.6552 6.16101C13.5702 6.13823 13.4955 6.15412 13.4312 6.20867C13.3682 6.26356 13.3189 6.35733 13.2834 6.48998C13.2482 6.62135 13.242 6.72668 13.265 6.80599C13.2895 6.88435 13.3417 6.93422 13.4216 6.95562C13.5182 6.9815 13.6164 6.94984 13.7162 6.86064L13.8518 6.35449C13.8349 6.3044 13.8094 6.26306 13.7753 6.23046C13.7416 6.19658 13.7016 6.17343 13.6552 6.16101ZM14.6446 6.50687C14.656 6.46437 14.6805 6.43228 14.718 6.41059C14.7559 6.38762 14.7968 6.382 14.8406 6.39374C14.8856 6.40581 14.9189 6.43128 14.9402 6.47012C14.9619 6.50768 14.967 6.54771 14.9556 6.59021C14.9439 6.634 14.9191 6.66738 14.8812 6.69035C14.8433 6.71333 14.8018 6.71877 14.7567 6.7067C14.7129 6.69496 14.6804 6.66967 14.659 6.63083C14.6377 6.59198 14.6329 6.55066 14.6446 6.50687ZM14.4577 7.20427C14.4691 7.16177 14.4938 7.12903 14.5317 7.10606C14.5696 7.08309 14.6104 7.07747 14.6542 7.0892C14.6993 7.10128 14.7325 7.12674 14.7538 7.16559C14.7755 7.20315 14.7805 7.24382 14.7688 7.28761C14.7567 7.33269 14.7319 7.36607 14.6943 7.38775C14.6568 7.40944 14.6154 7.41424 14.5704 7.40216C14.5266 7.39043 14.4938 7.36578 14.4722 7.32822C14.4505 7.29067 14.4457 7.24935 14.4577 7.20427ZM16.1365 6.19849C16.1725 6.20815 16.1986 6.22686 16.2146 6.25462C16.231 6.2811 16.2347 6.31108 16.2257 6.34456C16.2167 6.37805 16.1984 6.4028 16.1706 6.41883C16.1432 6.43357 16.1115 6.43611 16.0754 6.42645C16.0406 6.41713 16.015 6.39923 15.9987 6.37276C15.9839 6.34535 15.9811 6.3149 15.99 6.28141C15.999 6.24792 16.0165 6.22364 16.0427 6.20855C16.0704 6.19253 16.1017 6.18917 16.1365 6.19849ZM15.9005 7.59706L16.1864 7.67367L16.1517 7.8031L15.3905 7.59915L15.4252 7.46972L15.7382 7.55358L15.9416 6.79436L15.6383 6.71309L15.673 6.58366L16.1386 6.70841L15.9005 7.59706ZM17.1751 6.96337C17.3155 7.00099 17.4103 7.07745 17.4594 7.19277C17.5102 7.30715 17.5137 7.44612 17.4699 7.60969C17.4271 7.76939 17.3539 7.88782 17.2504 7.965C17.1486 8.04123 17.0281 8.06071 16.889 8.02344C16.7486 7.98583 16.653 7.90983 16.6022 7.79545C16.5518 7.67979 16.5485 7.54017 16.5923 7.37661C16.6354 7.21562 16.7079 7.09701 16.8098 7.02078C16.913 6.94489 17.0347 6.92576 17.1751 6.96337ZM17.1394 7.09667C17.0505 7.07286 16.9754 7.08793 16.914 7.14188C16.8526 7.19583 16.804 7.28977 16.7681 7.42371C16.7322 7.55766 16.7267 7.66316 16.7516 7.74023C16.7782 7.81636 16.8359 7.86633 16.9247 7.89014C17.0136 7.91395 17.0879 7.89936 17.1477 7.84635C17.209 7.7924 17.2579 7.69781 17.2941 7.56258C17.33 7.42864 17.3347 7.3236 17.3081 7.24748C17.2832 7.1704 17.227 7.12014 17.1394 7.09667ZM18.1729 6.81453L18.3757 6.86889L18.2102 7.36289L18.0673 7.32458L18.1729 6.81453ZM18.4955 6.90098L18.6983 6.95533L18.5348 7.44985L18.3918 7.41154L18.4955 6.90098ZM20.8682 8.75009C20.8582 8.78744 20.8559 8.81651 20.8614 8.8373C20.8668 8.85809 20.8806 8.87627 20.9027 8.89184L20.7851 9.07567C20.725 9.05267 20.6771 9.02534 20.6414 8.99369C20.6061 8.96076 20.5823 8.92058 20.5702 8.87315C20.5195 8.90787 20.4612 8.92953 20.3954 8.93813C20.3299 8.94544 20.2637 8.94012 20.1968 8.92217C20.0912 8.89388 20.0147 8.84165 19.9675 8.7655C19.9206 8.68806 19.9099 8.60169 19.9355 8.50638C19.9652 8.39562 20.0319 8.32171 20.1357 8.28464C20.2398 8.24629 20.3711 8.24834 20.5295 8.29078L20.6667 8.32754L20.6765 8.29083C20.7048 8.18522 20.6513 8.1143 20.5161 8.07807C20.4813 8.06875 20.4362 8.06217 20.3806 8.05832C20.3267 8.05353 20.273 8.05295 20.2196 8.05658L20.2044 7.8351C20.2766 7.82823 20.3499 7.82785 20.4242 7.83395C20.5001 7.83911 20.567 7.84945 20.625 7.86498C20.9238 7.94504 21.0407 8.10614 20.9758 8.34826L20.8682 8.75009ZM20.3596 8.73183C20.3943 8.74115 20.4317 8.7408 20.4717 8.7308C20.5132 8.71986 20.5477 8.69942 20.5751 8.66947L20.6201 8.5014L20.5447 8.48121C20.3799 8.43704 20.2837 8.46647 20.2561 8.56951C20.2454 8.60943 20.2487 8.64345 20.266 8.67155C20.2846 8.7 20.3158 8.72009 20.3596 8.73183ZM21.545 9.04946C21.5978 9.0636 21.6411 9.06692 21.6748 9.0594C21.7102 9.05094 21.7322 9.03061 21.7409 8.99842C21.7471 8.97523 21.7456 8.95483 21.7366 8.93722C21.7288 8.91994 21.7098 8.90038 21.6798 8.87853C21.6501 8.85539 21.6024 8.82467 21.5368 8.78637C21.441 8.73172 21.3724 8.67332 21.3311 8.61117C21.2901 8.54774 21.281 8.47352 21.3038 8.38852C21.329 8.2945 21.3882 8.22823 21.4813 8.18969C21.5758 8.15149 21.6932 8.15121 21.8336 8.18882C21.9958 8.2323 22.1231 8.31126 22.2153 8.42568L22.0454 8.57273C21.9669 8.48959 21.88 8.43524 21.7847 8.40971C21.7345 8.39625 21.6954 8.39268 21.6675 8.399C21.6409 8.40567 21.6239 8.42253 21.6167 8.44957C21.6118 8.4676 21.6135 8.48461 21.6216 8.5006C21.6314 8.51564 21.6513 8.53409 21.6814 8.55594C21.7127 8.57813 21.7599 8.60804 21.823 8.64564C21.8909 8.68592 21.9447 8.72451 21.9845 8.7614C22.0256 8.79864 22.0535 8.84131 22.0682 8.88943C22.0829 8.93754 22.0817 8.9938 22.0644 9.05819C22.0451 9.13032 22.0066 9.18627 21.949 9.22605C21.8914 9.26583 21.8225 9.28877 21.7422 9.29486C21.6619 9.30095 21.5773 9.29208 21.4884 9.26827C21.3931 9.24274 21.3104 9.20609 21.2404 9.15834C21.1704 9.11059 21.1149 9.055 21.0739 8.99156L21.2726 8.86052C21.346 8.95749 21.4368 9.02047 21.545 9.04946ZM24.245 8.37115C24.281 8.38082 24.3071 8.39953 24.3231 8.42729C24.3395 8.45376 24.3432 8.48374 24.3342 8.51723C24.3252 8.55071 24.3069 8.57547 24.2791 8.5915C24.2517 8.60624 24.22 8.60877 24.1839 8.59911C24.1491 8.58979 24.1235 8.5719 24.1072 8.54543C24.0924 8.51801 24.0895 8.48756 24.0985 8.45407C24.1075 8.42059 24.125 8.3963 24.1512 8.38122C24.1789 8.36519 24.2102 8.36184 24.245 8.37115ZM24.009 9.76972L24.2949 9.84633L24.2602 9.97577L23.499 9.77182L23.5337 9.64238L23.8467 9.72624L24.0501 8.96702L23.7468 8.88575L23.7815 8.75632L24.2471 8.88107L24.009 9.76972ZM25.2836 9.13604C25.424 9.17365 25.5188 9.25012 25.5679 9.36544C25.6187 9.47982 25.6222 9.61879 25.5784 9.78235C25.5356 9.94205 25.4624 10.0605 25.3589 10.1377C25.2571 10.2139 25.1366 10.2334 24.9975 10.1961C24.8571 10.1585 24.7615 10.0825 24.7107 9.96812C24.6603 9.85245 24.657 9.71284 24.7008 9.54927C24.7439 9.38829 24.8164 9.26968 24.9183 9.19344C25.0215 9.11756 25.1432 9.09842 25.2836 9.13604ZM25.2479 9.26933C25.159 9.24552 25.0839 9.26059 25.0225 9.31454C24.9611 9.36849 24.9125 9.46244 24.8766 9.59638C24.8407 9.73032 24.8352 9.83583 24.8601 9.9129C24.8867 9.98903 24.9444 10.039 25.0332 10.0628C25.1221 10.0866 25.1964 10.072 25.2561 10.019C25.3175 9.96506 25.3663 9.87047 25.4026 9.73525C25.4385 9.6013 25.4431 9.49627 25.4166 9.42014C25.3917 9.34307 25.3355 9.2928 25.2479 9.26933ZM26.4241 9.49754C26.4692 9.50962 26.5024 9.53508 26.5238 9.57393C26.5454 9.61149 26.5506 9.65152 26.5392 9.69402C26.5275 9.73781 26.5026 9.77119 26.4647 9.79416C26.4268 9.81713 26.3854 9.82258 26.3403 9.8105C26.2965 9.79877 26.2639 9.77348 26.2426 9.73463C26.2212 9.69579 26.2164 9.65447 26.2282 9.61068C26.2396 9.56818 26.264 9.53609 26.3016 9.5144C26.3395 9.49143 26.3803 9.48581 26.4241 9.49754ZM26.2455 10.164C26.2893 10.1758 26.3219 10.2011 26.3432 10.2399C26.3662 10.2778 26.3718 10.3187 26.3601 10.3624C26.3477 10.4088 26.3218 10.4564 26.2825 10.5052L26.0278 10.8221L25.881 10.7828L26.0762 10.4251C26.0607 10.4058 26.0502 10.3829 26.0449 10.3567C26.0408 10.3307 26.0422 10.3049 26.0491 10.2791C26.0608 10.2353 26.0854 10.2026 26.123 10.1809C26.1609 10.1579 26.2018 10.1523 26.2455 10.164ZM5.20132 5.80278C5.33011 5.83729 5.412 5.9103 5.447 6.02183C5.48234 6.13206 5.47671 6.27412 5.43012 6.44798C5.40183 6.55359 5.36036 6.64394 5.30574 6.71902C5.25274 6.79317 5.19024 6.84613 5.11822 6.87791C5.04656 6.9084 4.97016 6.91277 4.88902 6.89103C4.78985 6.86446 4.7182 6.8073 4.67407 6.71956L4.54829 7.189L4.23426 7.14005L4.62404 5.68537L4.8945 5.75784L4.87748 5.87544C4.93086 5.83591 4.9853 5.81046 5.0408 5.79911C5.09758 5.7881 5.15109 5.78932 5.20132 5.80278ZM5.0461 6.00344C4.9817 5.98619 4.91498 6.0111 4.84593 6.07818L4.72998 6.51092C4.74359 6.54769 4.75992 6.57691 4.77896 6.59858C4.79963 6.6193 4.82543 6.63381 4.85634 6.64209C4.913 6.65727 4.96223 6.64355 5.00403 6.60091C5.04745 6.55733 5.08417 6.47952 5.1142 6.36747C5.14664 6.24641 5.15619 6.15924 5.14285 6.10598C5.12986 6.05142 5.09761 6.01724 5.0461 6.00344ZM6.57308 6.17448C6.6349 6.19104 6.6888 6.21653 6.7348 6.25094L6.56386 6.6648L6.37067 6.61304L6.4214 6.42372C6.36197 6.41884 6.30346 6.43629 6.24587 6.47607C6.18828 6.51585 6.13672 6.57175 6.0912 6.64375L6.01252 6.93739L6.21536 6.99175L6.16049 7.19652L5.51719 7.02415L5.57206 6.81937L5.70729 6.85561L5.87293 6.23741L5.7377 6.20118L5.79205 5.99833L6.16104 6.0972L6.15353 6.34159C6.21435 6.26402 6.27878 6.21158 6.34684 6.18426C6.41524 6.15565 6.49065 6.15239 6.57308 6.17448ZM7.39439 6.39041C7.55023 6.43217 7.65865 6.51436 7.71966 6.637C7.78229 6.75869 7.79135 6.9026 7.74684 7.06874C7.7006 7.24132 7.62074 7.36417 7.50729 7.4373C7.39383 7.51043 7.25853 7.52594 7.10141 7.48384C6.94429 7.44174 6.8347 7.3613 6.77266 7.24253C6.71097 7.12247 6.70324 6.97615 6.74948 6.80357C6.77882 6.6941 6.82367 6.60397 6.88405 6.53319C6.94606 6.46146 7.02045 6.41307 7.10723 6.38801C7.19564 6.362 7.29136 6.3628 7.39439 6.39041ZM7.33383 6.61644C7.27072 6.59953 7.21746 6.61286 7.17403 6.65644C7.13095 6.69873 7.0944 6.7759 7.06438 6.88795C7.03401 7.00128 7.02673 7.08768 7.04255 7.14713C7.05871 7.2053 7.09835 7.24283 7.16146 7.25974C7.22456 7.27665 7.27783 7.26332 7.32126 7.21974C7.36468 7.17616 7.40158 7.0977 7.43195 6.98437C7.46162 6.87361 7.46838 6.78915 7.45222 6.73098C7.4364 6.67153 7.39694 6.63335 7.33383 6.61644ZM8.42493 7.57965C8.46357 7.59001 8.50281 7.59293 8.54267 7.58843C8.58287 7.58264 8.62738 7.57109 8.67618 7.5538L8.75965 7.78322C8.69966 7.81132 8.6342 7.82898 8.56324 7.8362C8.49229 7.84341 8.41882 7.83684 8.34284 7.81648C8.23337 7.78714 8.14474 7.73924 8.07697 7.67277C8.01049 7.60664 7.96687 7.52732 7.94611 7.43479C7.92535 7.34226 7.92929 7.24255 7.95793 7.13566C7.98657 7.02876 8.034 6.93932 8.10022 6.86734C8.16644 6.79536 8.24586 6.74624 8.33848 6.71999C8.43239 6.69408 8.53343 6.69561 8.64162 6.7246C8.7176 6.74496 8.78293 6.7742 8.83759 6.81231C8.8926 6.84914 8.94064 6.89652 8.98171 6.95446L8.80117 7.10278C8.74028 7.03125 8.67055 6.98496 8.59199 6.96391C8.43873 6.92285 8.33363 7.00856 8.27669 7.22107C8.24804 7.32796 8.24747 7.40994 8.27497 7.46701C8.30282 7.52278 8.35281 7.56033 8.42493 7.57965ZM11.1478 7.4189C11.2057 7.43442 11.2472 7.46763 11.2722 7.5185C11.2989 7.56844 11.2979 7.64685 11.2692 7.75375L11.0663 8.51103L10.9176 8.47117L11.1132 7.74093C11.1322 7.6701 11.1405 7.62124 11.138 7.59435C11.1359 7.56618 11.1175 7.54743 11.0827 7.53812C11.017 7.52052 10.9469 7.54521 10.8723 7.6122L10.6606 8.40233L10.5099 8.36195L10.7056 7.63171C10.7246 7.56088 10.7328 7.51202 10.7304 7.48513C10.7283 7.45696 10.7098 7.43821 10.6751 7.42889C10.6094 7.41129 10.5393 7.43599 10.4647 7.50298L10.253 8.29311L10.1042 8.25325L10.377 7.23516L10.5026 7.26881L10.4821 7.39169C10.5251 7.35489 10.5666 7.32875 10.6067 7.31325C10.648 7.2981 10.6925 7.29691 10.7401 7.30967C10.8354 7.33521 10.8845 7.39668 10.8874 7.49408C10.9301 7.45857 10.9719 7.43389 11.0129 7.42002C11.0538 7.40616 11.0988 7.40578 11.1478 7.4189ZM12.147 8.5625C12.1363 8.60242 12.1348 8.63377 12.1425 8.65654C12.1506 8.67802 12.1682 8.69724 12.1954 8.71419L12.1238 8.81923C12.0281 8.77978 11.9792 8.71492 11.9772 8.62465C11.9287 8.66135 11.8735 8.68452 11.8115 8.69415C11.7509 8.70412 11.6871 8.70014 11.6201 8.68219C11.5184 8.65493 11.4455 8.60503 11.4014 8.53249C11.3586 8.46029 11.35 8.37654 11.3755 8.28124C11.4035 8.17692 11.4656 8.10729 11.562 8.07237C11.6596 8.03778 11.785 8.04103 11.9383 8.08209L12.0889 8.12247L12.1112 8.0394C12.1305 7.96728 12.1237 7.91024 12.0908 7.86829C12.0582 7.82504 12.0026 7.7929 11.9241 7.77185C11.8468 7.75114 11.7539 7.74489 11.6454 7.75309L11.6341 7.61755C11.7653 7.60714 11.8824 7.61574 11.9854 7.64335C12.1091 7.67648 12.1953 7.73065 12.2442 7.80586C12.2943 7.88141 12.3056 7.97071 12.278 8.07374L12.147 8.5625ZM11.6933 8.57136C11.7435 8.58482 11.7946 8.58471 11.8466 8.57103C11.8999 8.55769 11.9473 8.53245 11.989 8.49531L12.0589 8.23451L11.9121 8.19517C11.8039 8.16619 11.7212 8.16334 11.6639 8.18663C11.6065 8.20992 11.5686 8.25634 11.5499 8.32589C11.5154 8.45468 11.5632 8.5365 11.6933 8.57136ZM13.3021 7.50958C13.3382 7.51924 13.3642 7.53795 13.3803 7.56571C13.3966 7.59219 13.4003 7.62217 13.3914 7.65565C13.3824 7.68914 13.364 7.71389 13.3363 7.72992C13.3088 7.74466 13.2771 7.7472 13.241 7.73754C13.2063 7.72822 13.1807 7.71032 13.1643 7.68385C13.1496 7.65644 13.1467 7.62599 13.1557 7.5925C13.1646 7.55901 13.1822 7.53473 13.2083 7.51964C13.2361 7.50362 13.2674 7.50026 13.3021 7.50958ZM13.0661 8.90815L13.352 8.98476L13.3173 9.11419L12.5562 8.91024L12.5909 8.78081L12.9038 8.86467L13.1073 8.10545L12.804 8.02418L12.8386 7.89475L13.3042 8.0195L13.0661 8.90815ZM13.9468 8.19167L14.0859 8.22894L14.0611 8.37552C14.1148 8.3347 14.1757 8.30823 14.2439 8.29612C14.3136 8.28306 14.3794 8.28482 14.4412 8.30138C14.6318 8.35245 14.7002 8.47845 14.6464 8.67936L14.4487 9.41733L14.2864 9.37384L14.452 8.75565C14.4724 8.67967 14.4834 8.6205 14.4851 8.57816C14.4881 8.53617 14.4799 8.50223 14.4606 8.47636C14.4413 8.45048 14.4065 8.43081 14.3563 8.41736C14.3009 8.40252 14.2443 8.40528 14.1864 8.42565C14.1285 8.44603 14.0778 8.47525 14.0345 8.51334L13.8363 9.25324L13.674 9.20975L13.9468 8.19167ZM15.2318 8.90248C15.1966 9.03384 15.1807 9.15244 15.1841 9.25825C15.1878 9.36278 15.208 9.46274 15.2445 9.55812C15.2827 9.65255 15.339 9.75667 15.4135 9.87048L15.3066 9.93708C15.2177 9.81528 15.1492 9.70028 15.1009 9.59209C15.0538 9.48424 15.0257 9.37041 15.0164 9.25058C15.0084 9.1311 15.0235 8.99988 15.0618 8.85693C15.1001 8.71397 15.1526 8.59276 15.2193 8.4933C15.2873 8.39418 15.3686 8.30967 15.4632 8.23979C15.5591 8.17025 15.676 8.10494 15.8139 8.04387L15.8731 8.15499C15.7505 8.216 15.649 8.27785 15.5687 8.34053C15.4897 8.40357 15.4223 8.48005 15.3664 8.57C15.3122 8.659 15.2674 8.76983 15.2318 8.90248ZM16.7263 9.30293C16.7619 9.17027 16.7778 9.05168 16.774 8.94715C16.7719 8.84168 16.7518 8.74173 16.7136 8.64729C16.6767 8.5532 16.6204 8.44908 16.5447 8.33493L16.6515 8.26832C16.7404 8.39013 16.8083 8.50496 16.8553 8.6128C16.9036 8.72099 16.9318 8.83483 16.9398 8.95431C16.9491 9.07413 16.9346 9.20552 16.8963 9.34848C16.858 9.49144 16.8049 9.61248 16.7369 9.71159C16.6702 9.81106 16.5889 9.89556 16.493 9.9651C16.3983 10.035 16.2821 10.1005 16.1442 10.1615L16.085 10.0504C16.2063 9.98906 16.3065 9.92687 16.3855 9.86384C16.4662 9.79986 16.5342 9.72355 16.5897 9.63489C16.6456 9.54495 16.6911 9.43429 16.7263 9.30293ZM19.3835 9.14737C19.2123 9.10148 19.118 9.13142 19.1007 9.23722L19.0332 9.6436C19.0314 9.65553 19.0275 9.67245 19.0216 9.69434C19.0051 9.75616 18.9775 9.79985 18.9389 9.8254C18.9007 9.84966 18.8491 9.8593 18.7842 9.85433C18.8442 9.88283 18.884 9.91697 18.9037 9.95676C18.9251 9.99561 18.9273 10.0466 18.9104 10.1097C18.9045 10.1316 18.8992 10.1488 18.8944 10.1613L18.7497 10.547C18.7294 10.6023 18.738 10.6474 18.7756 10.6823C18.8131 10.7172 18.8712 10.7452 18.9498 10.7663L18.9151 10.8957C18.7992 10.8646 18.7099 10.8193 18.6471 10.7597C18.5844 10.7001 18.5658 10.6227 18.5914 10.5274C18.5959 10.5106 18.6 10.4979 18.6037 10.4892L18.7426 10.1331C18.7463 10.1244 18.7504 10.1117 18.7549 10.0949C18.7701 10.0383 18.76 9.99073 18.7248 9.9523C18.6895 9.91386 18.6159 9.87963 18.5038 9.84961L18.539 9.71824C18.6511 9.74827 18.7318 9.75609 18.7812 9.74172C18.8309 9.72607 18.8634 9.6899 18.8786 9.63324C18.8827 9.61778 18.8854 9.60537 18.8865 9.59601L18.9453 9.21423C18.9464 9.20487 18.9492 9.19182 18.9537 9.17507C18.9793 9.07977 19.0341 9.02199 19.1182 9.00173C19.2023 8.98148 19.3023 8.98688 19.4182 9.01794L19.3835 9.14737ZM6.99271 7.88953C7.02877 7.89919 7.05481 7.9179 7.07084 7.94566C7.08721 7.97214 7.09091 8.00211 7.08194 8.0356C7.07297 8.06909 7.0546 8.09384 7.02684 8.10987C6.99943 8.12461 6.96769 8.12715 6.93163 8.11749C6.89685 8.10817 6.87128 8.09027 6.85491 8.0638C6.84017 8.03638 6.83728 8.00593 6.84625 7.97245C6.85523 7.93896 6.87278 7.91468 6.89891 7.89959C6.92667 7.88356 6.95793 7.88021 6.99271 7.88953ZM6.75669 9.2881L7.0426 9.36471L7.00792 9.49414L6.24677 9.29019L6.28145 9.16076L6.59441 9.24461L6.79784 8.4854L6.49454 8.40413L6.52923 8.27469L6.9948 8.39944L6.75669 9.2881ZM8.03135 8.65441C8.17173 8.69203 8.2665 8.76849 8.31566 8.88381C8.36646 8.99819 8.36994 9.13716 8.32612 9.30072C8.28332 9.46042 8.21018 9.57886 8.10668 9.65604C8.00481 9.73227 7.88433 9.75175 7.74523 9.71448C7.60485 9.67686 7.50927 9.60087 7.45847 9.48649C7.40802 9.37083 7.40471 9.23121 7.44854 9.06765C7.49167 8.90666 7.56418 8.78805 7.66604 8.71182C7.7692 8.63593 7.89097 8.6168 8.03135 8.65441ZM7.99563 8.78771C7.90677 8.7639 7.83164 8.77897 7.77025 8.83292C7.70886 8.88687 7.66023 8.98081 7.62434 9.11475C7.58845 9.2487 7.58295 9.3542 7.60785 9.43127C7.63439 9.5074 7.69209 9.55737 7.78095 9.58118C7.86982 9.60499 7.94413 9.5904 8.00388 9.53739C8.06527 9.48344 8.11408 9.38885 8.15032 9.25362C8.18621 9.11968 8.19088 9.01464 8.16435 8.93851C8.13945 8.86144 8.08321 8.81117 7.99563 8.78771ZM8.77721 9.80879C8.78998 9.76114 8.81677 9.72552 8.8576 9.70195C8.90006 9.67744 8.94511 9.67157 8.99276 9.68434C9.0417 9.69745 9.07779 9.72506 9.10101 9.76718C9.12458 9.808 9.12998 9.85224 9.11721 9.89989C9.1041 9.94883 9.07713 9.98509 9.03631 10.0087C8.99548 10.0322 8.9506 10.0375 8.90166 10.0243C8.85401 10.0116 8.81775 9.98461 8.79289 9.94344C8.76967 9.90132 8.76444 9.85644 8.77721 9.80879ZM10.4755 9.28653C10.6043 9.32104 10.6861 9.39406 10.7211 9.50558C10.7565 9.61582 10.7509 9.75787 10.7043 9.93174C10.676 10.0373 10.6345 10.1277 10.5799 10.2028C10.5269 10.2769 10.4644 10.3299 10.3924 10.3617C10.3207 10.3922 10.2443 10.3965 10.1632 10.3748C10.064 10.3482 9.99235 10.2911 9.94822 10.2033L9.82243 10.6728L9.5084 10.6238L9.89818 9.16912L10.1686 9.24159L10.1516 9.35919C10.205 9.31966 10.2594 9.29422 10.3149 9.28286C10.3717 9.27185 10.4252 9.27307 10.4755 9.28653ZM10.3202 9.4872C10.2558 9.46994 10.1891 9.49485 10.1201 9.56194L10.0041 9.99467C10.0177 10.0314 10.0341 10.0607 10.0531 10.0823C10.0738 10.1031 10.0996 10.1176 10.1305 10.1258C10.1871 10.141 10.2364 10.1273 10.2782 10.0847C10.3216 10.0411 10.3583 9.96327 10.3883 9.85123C10.4208 9.73016 10.4303 9.643 10.417 9.58973C10.404 9.53518 10.3718 9.501 10.3202 9.4872ZM11.8472 9.65824C11.909 9.6748 11.9629 9.70029 12.0089 9.7347L11.838 10.1486L11.6448 10.0968L11.6955 9.90747C11.6361 9.90259 11.5776 9.92004 11.52 9.95982C11.4624 9.99961 11.4109 10.0555 11.3653 10.1275L11.2867 10.4211L11.4895 10.4755L11.4346 10.6803L10.7913 10.5079L10.8462 10.3031L10.9814 10.3394L11.1471 9.72117L11.0118 9.68493L11.0662 9.48209L11.4352 9.58096L11.4277 9.82534C11.4885 9.74777 11.5529 9.69533 11.621 9.66801C11.6894 9.63941 11.7648 9.63615 11.8472 9.65824ZM12.8012 9.37137C12.854 9.38552 12.8927 9.41382 12.9172 9.45628C12.942 9.49745 12.9479 9.5425 12.9348 9.59144C12.9213 9.64167 12.8935 9.6784 12.8514 9.70162C12.8093 9.72485 12.7619 9.72938 12.7091 9.71524C12.6562 9.70109 12.6168 9.67326 12.5906 9.63174C12.5661 9.58928 12.5604 9.54358 12.5735 9.49464C12.5866 9.4457 12.6143 9.40962 12.6564 9.3864C12.7001 9.36223 12.7484 9.35722 12.8012 9.37137ZM12.6219 10.7748L12.8846 10.8452L12.8287 11.0538L11.9709 10.824L12.0268 10.6153L12.3166 10.693L12.4797 10.0844L12.1996 10.0094L12.2555 9.80075L12.8408 9.9576L12.6219 10.7748ZM13.3733 10.1003L13.6398 10.1717L13.6295 10.2952C13.6897 10.2561 13.7482 10.2311 13.8049 10.2201C13.8634 10.2081 13.9248 10.2108 13.9892 10.228C14.078 10.2518 14.1397 10.2973 14.1741 10.3646C14.2099 10.4321 14.2148 10.5142 14.1889 10.6108L13.987 11.3642L13.6818 11.2824L13.8599 10.6178C13.8771 10.5535 13.8819 10.5071 13.8743 10.4789C13.8667 10.4506 13.8442 10.4315 13.8069 10.4214C13.776 10.4132 13.743 10.4154 13.7078 10.428C13.6743 10.4398 13.6369 10.4608 13.5957 10.4911L13.4036 11.2079L13.0984 11.1261L13.3733 10.1003ZM15.1962 11.624C15.0831 11.6599 14.9627 11.6608 14.8352 11.6267C14.7039 11.5915 14.6137 11.5314 14.5646 11.4465C14.5169 11.3619 14.5092 11.2591 14.5417 11.138L14.6664 10.6725L14.452 10.615L14.5084 10.4044L14.7229 10.4619L14.7824 10.2397L15.0975 10.2848L15.0281 10.5437L15.3584 10.6322L15.2711 10.8345L14.9717 10.7542L14.8469 11.2198C14.8335 11.2701 14.8354 11.3092 14.8527 11.3373C14.87 11.3654 14.9044 11.3864 14.956 11.4002C15.0203 11.4174 15.0844 11.418 15.148 11.402L15.1962 11.624ZM15.8725 11.1447C15.8373 11.2761 15.8214 11.3947 15.8248 11.5005C15.8286 11.605 15.8487 11.705 15.8853 11.8003C15.9235 11.8948 15.9798 11.9989 16.0542 12.1127L15.9473 12.1793C15.8585 12.0575 15.7899 11.9425 15.7416 11.8343C15.6946 11.7265 15.6664 11.6126 15.6571 11.4928C15.6491 11.3733 15.6642 11.2421 15.7025 11.0992C15.7408 10.9562 15.7933 10.835 15.86 10.7355C15.928 10.6364 16.0093 10.5519 16.1039 10.482C16.1999 10.4125 16.3167 10.3472 16.4546 10.2861L16.5138 10.3972C16.3912 10.4582 16.2897 10.5201 16.2094 10.5828C16.1304 10.6458 16.063 10.7223 16.0072 10.8122C15.953 10.9012 15.9081 11.0121 15.8725 11.1447ZM17.367 11.5452C17.4026 11.4125 17.4185 11.2939 17.4147 11.1894C17.4126 11.0839 17.3925 10.984 17.3543 10.8895C17.3174 10.7954 17.2611 10.6913 17.1854 10.5772L17.2923 10.5106C17.3811 10.6324 17.449 10.7472 17.496 10.855C17.5443 10.9632 17.5725 11.0771 17.5805 11.1965C17.5898 11.3164 17.5753 11.4478 17.537 11.5907C17.4987 11.7337 17.4456 11.8547 17.3776 11.9538C17.3109 12.0533 17.2296 12.1378 17.1337 12.2073C17.039 12.2772 16.9228 12.3427 16.785 12.4038L16.7257 12.2926C16.8471 12.2313 16.9472 12.1691 17.0262 12.1061C17.1069 12.0421 17.1749 11.9658 17.2305 11.8771C17.2863 11.7872 17.3318 11.6765 17.367 11.5452ZM18.4387 11.499C18.4838 11.511 18.517 11.5365 18.5383 11.5753C18.56 11.6129 18.5652 11.6529 18.5538 11.6954C18.5421 11.7392 18.5172 11.7726 18.4793 11.7956C18.4414 11.8186 18.3999 11.824 18.3549 11.8119C18.3111 11.8002 18.2785 11.7749 18.2572 11.7361C18.2358 11.6972 18.231 11.6559 18.2428 11.6121C18.2541 11.5696 18.2786 11.5375 18.3162 11.5158C18.3541 11.4928 18.3949 11.4872 18.4387 11.499ZM18.2601 12.1655C18.3039 12.1772 18.3365 12.2025 18.3578 12.2413C18.3808 12.2792 18.3864 12.3201 18.3747 12.3639C18.3623 12.4102 18.3364 12.4578 18.2971 12.5066L18.0424 12.8235L17.8956 12.7842L18.0908 12.4265C18.0753 12.4072 18.0648 12.3844 18.0594 12.3581C18.0553 12.3321 18.0568 12.3063 18.0637 12.2805C18.0754 12.2367 18.1 12.204 18.1376 12.1823C18.1755 12.1593 18.2163 12.1537 18.2601 12.1655ZM3.89926 9.00075C4.01517 9.03181 4.10448 9.07713 4.16719 9.13673C4.22991 9.19632 4.24849 9.27377 4.22296 9.36908C4.21847 9.38582 4.21438 9.39853 4.21067 9.4072L4.07072 9.76724C4.0677 9.77334 4.06447 9.78282 4.06102 9.7957C4.04549 9.85366 4.05647 9.90284 4.09395 9.94325C4.13273 9.98401 4.20492 10.0185 4.31052 10.0468L4.27532 10.1782C4.16843 10.1496 4.08865 10.1434 4.03598 10.1596C3.98331 10.1759 3.94904 10.2136 3.93316 10.2729C3.92971 10.2857 3.9276 10.2962 3.92681 10.3043L3.86903 10.6822C3.8679 10.6916 3.8651 10.7046 3.86061 10.7214C3.83507 10.8167 3.78025 10.8745 3.69614 10.8947C3.61203 10.915 3.51202 10.9096 3.39611 10.8785L3.43079 10.7491C3.50936 10.7701 3.57364 10.7749 3.62364 10.7635C3.67364 10.752 3.70366 10.7173 3.71369 10.6592L3.78117 10.2528C3.78549 10.2264 3.78886 10.2087 3.79128 10.1997C3.80853 10.1353 3.8374 10.0919 3.87788 10.0696C3.91836 10.0474 3.97604 10.0407 4.05092 10.0497C3.98483 10.0182 3.93935 9.98189 3.91449 9.94072C3.89127 9.89861 3.88811 9.846 3.90502 9.78289C3.91054 9.76228 3.9155 9.74636 3.91989 9.73511L4.06465 9.34943C4.10256 9.24916 4.03587 9.17608 3.86458 9.13018L3.89926 9.00075Z" fill="white"/>
</g>
</g>
<defs>
<filter id="filter0_d_19_18" x="0" y="2.2" width="16" height="12" filterUnits="userSpaceOnUse" color-interpolation-filters="sRGB">
<feFlood flood-opacity="0" result="BackgroundImageFix"/>
<feColorMatrix in="SourceAlpha" type="matrix" values="0 0 0 0 0 0 0 0 0 0 0 0 0 0 0 0 0 0 127 0" result="hardAlpha"/>
<feOffset dy="0.2"/>
<feGaussianBlur stdDeviation="0.5"/>
<feColorMatrix type="matrix" values="0 0 0 0 0 0 0 0 0 0 0 0 0 0 0 0 0 0 0.25 0"/>
<feBlend mode="normal" in2="BackgroundImageFix" result="effect1_dropShadow_19_18"/>
<feBlend mode="normal" in="SourceGraphic" in2="effect1_dropShadow_19_18" result="shape"/>
</filter>
<filter id="filter1_d_19_18" x="1.10077" y="1.30077" width="13.7985" height="13.7985" filterUnits="userSpaceOnUse" color-interpolation-filters="sRGB">
<feFlood flood-opacity="0" result="BackgroundImageFix"/>
<feColorMatrix in="SourceAlpha" type="matrix" values="0 0 0 0 0 0 0 0 0 0 0 0 0 0 0 0 0 0 127 0" result="hardAlpha"/>
<feOffset dy="0.2"/>
<feGaussianBlur stdDeviation="0.5"/>
<feColorMatrix type="matrix" values="0 0 0 0 0 0 0 0 0 0 0 0 0 0 0 0 0 0 0.25 0"/>
<feBlend mode="normal" in2="BackgroundImageFix" result="effect1_dropShadow_19_18"/>
<feBlend mode="normal" in="SourceGraphic" in2="effect1_dropShadow_19_18" result="shape"/>
</filter>
<linearGradient id="paint0_linear_19_18" x1="8" y1="3" x2="8" y2="13" gradientUnits="userSpaceOnUse">
<stop stop-color="#29CB00"/>
<stop offset="1" stop-color="#00A8B3"/>
</linearGradient>
</defs>
</svg>
